PathFileType	4	(X/Y/Z)	Run_400 02
DataRate	CameraRate	NumFrames	NumMarkers	Units	OrigDataRate	OrigDataStartFrame	OrigNumFrames
100	100	5	42	mm	100	386	128
Frame#	Time	RASI			LPSI			RPSI			RTH1			RTH2			RTH3			LTH1			LTH2			LTH3			RTB1			RTB2			RTB3			LTB1			LTB2			LTB3			RCAL			RTOE			RMT5			LCAL			LTOE			LMT5			LACR			RACR			CLAV			C7			RUA1			RUA2			RUA3			RLEL			RMEL			LUA2			LUA3			LLEL			LMEL			RFAsuperior			RFAradius			RFAulna			LFAsuperior			LFAradius			LFAulna			LUA1			LASI		
		X1	Y1	Z1	X2	Y2	Z2	X3	Y3	Z3	X4	Y4	Z4	X5	Y5	Z5	X6	Y6	Z6	X7	Y7	Z7	X8	Y8	Z8	X9	Y9	Z9	X10	Y10	Z10	X11	Y11	Z11	X12	Y12	Z12	X13	Y13	Z13	X14	Y14	Z14	X15	Y15	Z15	X16	Y16	Z16	X17	Y17	Z17	X18	Y18	Z18	X19	Y19	Z19	X20	Y20	Z20	X21	Y21	Z21	X22	Y22	Z22	X23	Y23	Z23	X24	Y24	Z24	X25	Y25	Z25	X26	Y26	Z26	X27	Y27	Z27	X28	Y28	Z28	X29	Y29	Z29	X30	Y30	Z30	X31	Y31	Z31	X32	Y32	Z32	X33	Y33	Z33	X34	Y34	Z34	X35	Y35	Z35	X36	Y36	Z36	X37	Y37	Z37	X38	Y38	Z38	X39	Y39	Z39	X40	Y40	Z40	X41	Y41	Z41	X42	Y42	Z42	

386	  3.860000	1173.879695	955.495419	-186.332315	1000.200001	1032.674779	-354.453597	998.645165	1022.513673	-260.761828	1106.157722	773.221120	-153.250985	1119.138412	669.511568	-168.599797	1030.750303	547.732099	-178.310027	1104.272571	845.284989	-510.384367	1215.425011	751.514462	-496.734229	1196.788936	617.520308	-481.312666	868.361219	423.412969	-246.786217	777.103303	488.738989	-198.412097	698.290441	479.088284	-256.987428	1281.897235	348.987390	-396.304022	1239.979463	288.701749	-432.546721	1251.920503	215.302287	-370.685295	639.505271	613.714272	-249.762066	543.450464	398.821359	-272.207942	519.066386	422.867355	-199.225384	1119.493782	100.206370	-339.362033	1386.565876	 51.459343	-329.614285	1330.121915	 56.769343	-413.902649	1189.336088	1472.261649	-509.752760	1236.162223	1464.795135	-167.478229	1259.272696	1406.744419	-314.566052	1151.399387	1507.641637	-332.399882	1175.975415	1346.475656	-77.435995	1109.566841	1353.706856	-59.541677	1112.943077	1278.734838	-44.793024	1068.796463	1216.161288	-13.873519	1009.514037	1226.023175	-87.778879	1014.959767	1352.329199	-560.785431	1025.047107	1284.002577	-614.449362	986.817294	1229.448410	-635.830782	965.277324	1206.565399	-548.683852	1141.370678	1172.058232	-48.039409	1249.948750	1104.721734	-158.554907	1221.848157	1048.185055	-123.970276	1063.882803	1188.321541	-638.976058	1228.782351	1156.083696	-573.927730	1206.914711	1091.876330	-597.698418	1098.813736	1384.321438	-585.776375	1165.373343	974.638507	-439.160210	
387	  3.870000	1168.146862	949.409216	-185.379147	995.478789	1027.938329	-351.922439	995.388221	1016.810221	-258.739146	1108.023995	768.611154	-152.383151	1128.340260	665.806226	-167.414757	1048.581189	539.208483	-177.840485	1098.051250	846.138560	-510.206424	1210.173609	749.246877	-500.499097	1191.755298	615.580956	-482.249500	893.840251	419.277104	-248.781923	803.687657	484.570253	-199.133497	725.411923	477.758430	-258.376554	1265.635445	345.994466	-394.858094	1221.022049	288.321673	-433.030648	1224.690844	214.002011	-370.189481	666.009569	613.763161	-249.173421	572.421407	397.942898	-273.440578	549.763582	420.105735	-199.563875	1081.773919	102.318252	-339.119965	1348.901672	 52.447413	-329.219182	1292.282969	 57.023257	-413.595245	1195.605772	1463.588832	-513.013789	1234.117700	1457.323576	-166.393786	1260.295432	1399.202907	-314.295798	1153.648721	1503.331036	-335.076436	1168.907011	1336.823079	-79.938041	1101.456351	1345.093169	-62.436304	1103.069365	1270.200699	-49.861992	1057.550635	1209.047526	-19.746762	1001.476531	1218.387713	-95.599299	1024.776084	1336.297954	-569.097025	1039.003280	1266.226218	-617.759284	1003.999464	1211.549059	-640.870104	978.364528	1188.260874	-555.537155	1130.955980	1162.826989	-51.699336	1240.671841	1087.722368	-153.395754	1208.835396	1033.503866	-117.553854	1082.021022	1172.426197	-640.563833	1243.741379	1142.899649	-572.238558	1223.502377	1078.315521	-597.640381	1110.683698	1368.973579	-588.893182	1160.211970	970.572309	-440.274188	
388	  3.880000	1162.185667	945.078707	-183.948626	991.353263	1024.377913	-349.825676	991.810333	1012.535789	-256.895975	1109.672705	765.390672	-150.997082	1138.818248	663.978166	-165.324320	1068.444035	533.988497	-177.273896	1093.573550	845.033151	-509.798942	1202.593904	744.818513	-502.887262	1181.934910	610.507181	-481.312059	921.298998	415.695810	-251.313706	831.841517	479.770274	-200.010782	753.966167	474.795088	-259.938454	1244.915013	339.532055	-393.514326	1197.478055	284.608057	-432.810794	1194.415551	210.044689	-369.257624	690.780097	611.146634	-247.630246	604.034223	393.020925	-275.921242	583.227495	411.829363	-200.890689	1043.623212	103.768028	-338.793777	1310.637670	 52.496495	-329.103908	1253.849371	 56.372743	-413.577055	1202.856505	1456.700533	-514.755575	1231.466565	1451.654575	-165.954418	1260.577248	1393.414251	-313.710964	1155.526840	1500.369928	-337.215220	1161.399284	1330.490466	-82.347900	1092.670326	1339.627554	-66.705882	1092.470879	1265.480452	-54.394223	1045.556210	1204.890862	-25.603716	992.947623	1212.752312	-103.294715	1036.180454	1323.931723	-574.077197	1053.344241	1252.813559	-619.239118	1021.525144	1197.228707	-643.493420	991.336235	1173.666148	-559.804479	1120.153118	1157.828123	-55.437715	1230.725791	1075.441908	-148.726230	1195.291693	1023.357743	-112.251692	1101.020682	1160.801980	-639.905284	1259.017412	1132.811669	-568.470284	1240.472585	1068.066582	-595.897666	1123.988647	1357.098786	-590.527613	1156.796075	968.106495	-441.688457	
389	  3.890000	1156.549444	942.537445	-182.061036	988.428580	1022.500071	-349.148282	987.910742	1010.279599	-256.255348	1111.051309	763.636560	-149.430410	1149.919125	664.486298	-162.570687	1089.764440	532.226280	-176.655182	1090.714605	841.167333	-509.544289	1193.235560	737.488517	-503.271245	1168.589445	603.384296	-479.426061	950.060237	413.040895	-253.902808	860.741468	474.807279	-201.130127	783.007379	470.469942	-261.514935	1220.716896	330.801038	-392.518023	1170.441487	278.703456	-431.987277	1162.065201	204.798374	-368.018443	713.346622	605.809758	-246.069372	637.632511	384.298665	-278.646378	618.472818	399.373256	-202.496952	1005.320095	105.024905	-338.541487	1272.151677	 52.439408	-328.879470	1215.183317	 55.605267	-413.450892	1210.792357	1451.925984	-514.852741	1227.747859	1448.181829	-165.849642	1260.140405	1389.526910	-312.665828	1156.573321	1497.686674	-338.893348	1152.889384	1327.995031	-84.180634	1082.920922	1337.981895	-72.086078	1080.889343	1264.862036	-58.282584	1032.564188	1204.463290	-30.923475	983.425529	1210.441383	-110.273078	1048.043468	1315.439155	-575.492082	1067.272844	1243.864823	-619.111372	1038.005107	1187.095249	-643.716851	1003.844670	1163.411634	-560.895504	1107.952720	1156.355071	-57.990260	1220.089816	1068.973937	-144.903293	1181.425226	1018.528616	-108.885119	1119.087494	1153.357144	-637.486416	1274.018395	1126.952906	-562.934674	1257.321931	1062.141361	-592.112911	1137.187662	1348.980081	-590.844007	1154.888517	966.370352	-442.275357	
390	  3.900000	1151.515647	941.678162	-180.055655	986.793100	1022.455978	-350.113546	984.390235	1010.178696	-257.329966	1112.431278	763.697882	-147.983269	1160.948559	667.791445	-160.146606	1111.785794	533.851708	-176.312468	1088.234444	836.078976	-509.739102	1183.716514	727.862466	-502.496631	1153.838320	596.304153	-477.824889	979.640931	411.941530	-256.278991	889.450699	469.953422	-202.641828	811.638320	464.914780	-263.077032	1194.412385	322.452961	-391.806842	1141.910125	272.964822	-431.110273	1128.928932	200.425517	-367.097296	733.780865	597.658420	-245.407930	672.585061	372.206465	-280.712333	654.535470	384.195636	-203.659754	967.306962	106.643921	-338.618454	1233.865684	 53.010200	-328.499433	1176.695711	 55.378395	-413.149567	1218.864464	1449.345023	-513.807072	1222.728274	1447.093070	-165.562872	1259.411620	1387.532019	-311.045292	1156.772910	1495.316349	-340.378996	1142.810216	1329.191224	-85.121415	1071.907921	1340.023897	-77.932838	1068.141494	1267.988993	-61.571755	1018.410356	1207.835267	-35.533570	972.878312	1212.202863	-116.488112	1059.255841	1310.057978	-574.630470	1080.006270	1238.477861	-617.737508	1052.322979	1180.735676	-642.114718	1016.081821	1157.169242	-559.208630	1093.788461	1157.689847	-58.922008	1208.899562	1068.873516	-141.937196	1167.711146	1019.336156	-107.537944	1134.683264	1149.154140	-633.924680	1287.997369	1125.931804	-556.185022	1273.513357	1060.910864	-586.265054	1149.009676	1344.040511	-590.264546	1153.833376	964.986193	-441.605596	
